<svg width="504" height="504" viewBox="0 0 504 504" fill="none" xmlns="http://www.w3.org/2000/svg">
<path d="M167.625 105.938L252 154.688L336.375 105.938M167.625 398.063V300.75L83.25 252M420.75 252L336.375 300.75V398.063M88.3125 157.5L252 252.188L415.688 157.5M252 441V252M502 252C502 390.071 390.071 502 252 502C113.929 502 2 390.071 2 252C2 113.929 113.929 2 252 2C390.071 2 502 113.929 502 252ZM420.75 327V177C420.743 170.424 419.007 163.965 415.716 158.272C412.425 152.578 407.695 147.851 402 144.562L270.75 69.5625C265.049 66.2712 258.583 64.5385 252 64.5385C245.417 64.5385 238.951 66.2712 233.25 69.5625L102 144.562C96.3049 147.851 91.5746 152.578 88.2837 158.272C84.9927 163.965 83.2567 170.424 83.25 177V327C83.2567 333.576 84.9927 340.035 88.2837 345.728C91.5746 351.422 96.3049 356.149 102 359.438L233.25 434.438C238.951 437.729 245.417 439.462 252 439.462C258.583 439.462 265.049 437.729 270.75 434.438L402 359.438C407.695 356.149 412.425 351.422 415.716 345.728C419.007 340.035 420.743 333.576 420.75 327Z" stroke="white" stroke-width="4" stroke-linecap="round" stroke-linejoin="round"/>
</svg>
